<?xml version="1.0" standalone="no"?>
<!DOCTYPE svg PUBLIC "-//W3C//DTD SVG 20010904//EN"
 "http://www.w3.org/TR/2001/REC-SVG-20010904/DTD/svg10.dtd">
<svg version="1.0" xmlns="http://www.w3.org/2000/svg"
 width="1000.000000pt" height="1000.000000pt" viewBox="0 0 1000.000000 1000.000000"
 preserveAspectRatio="xMidYMid meet">
<metadata>
Created by potrace 1.14, written by Peter Selinger 2001-2017
</metadata>
<g transform="translate(0.000000,1000.000000) scale(0.100000,-0.100000)"
fill="#000000" stroke="none">
<path d="M0 5000 l0 -5000 5000 0 5000 0 0 5000 0 5000 -5000 0 -5000 0 0
-5000z m8527 -2031 c217 -49 385 -176 469 -354 34 -71 68 -192 56 -199 -4 -2
-74 -5 -156 -7 l-149 -4 -11 30 c-21 57 -45 93 -91 133 -85 75 -197 112 -335
112 -301 -1 -497 -177 -450 -405 21 -99 104 -168 243 -200 35 -8 133 -24 218
-34 348 -45 525 -109 651 -235 95 -95 139 -211 140 -366 1 -164 -56 -301 -173
-417 -330 -325 -930 -325 -1254 2 -91 91 -146 208 -161 336 l-6 56 158 5 c88
3 160 5 161 4 1 0 4 -21 8 -45 24 -165 226 -291 467 -291 202 0 378 86 453
221 26 47 30 64 30 129 0 64 -5 83 -28 123 -52 88 -148 124 -417 158 -323 40
-462 77 -588 160 -258 169 -301 584 -87 842 182 219 530 320 852 246z m-4538
-408 l295 -408 41 56 c23 31 151 207 284 391 134 184 251 343 260 353 15 16
36 17 203 15 l187 -3 -393 -545 -392 -544 393 -541 394 -540 -188 -3 c-168 -2
-189 -1 -203 15 -9 10 -138 185 -285 388 -148 204 -276 380 -285 391 -16 21
-23 12 -309 -383 -162 -222 -299 -407 -305 -409 -6 -2 -94 -3 -194 -2 l-183 3
391 538 c214 295 390 540 390 543 0 3 -69 101 -153 217 -212 293 -611 849
-621 865 -6 9 34 12 186 11 l193 0 294 -408z m1991 -117 c195 -288 358 -523
362 -522 4 2 167 237 361 523 l353 520 127 3 127 3 0 -1091 0 -1090 -155 0
-155 0 -2 766 -3 765 -283 -421 -283 -421 -92 3 -92 3 -280 418 -280 417 -3
-765 -2 -765 -155 0 -155 0 0 1090 0 1090 128 0 127 -1 355 -525z"/>
</g>
</svg>
